<mxfile host="app.diagrams.net" modified="2024-06-07T10:28:56.349Z" agent="Mozilla/5.0 (X11; Ubuntu; Linux x86_64; rv:126.0) Gecko/20100101 Firefox/126.0" etag="vVc60GjLWrEobWIZ6l-_" version="24.4.14" type="device">
  <diagram name="Page-1" id="bedBe2_VTExCJ06ZT0RP">
    <mxGraphModel dx="2064" dy="1095" grid="1" gridSize="10" guides="1" tooltips="1" connect="1" arrows="1" fold="1" page="1" pageScale="1" pageWidth="827" pageHeight="1169" math="0" shadow="0">
      <root>
        <mxCell id="0" />
        <mxCell id="1" parent="0" />
        <mxCell id="taE_gKGtC0kip1eN09oQ-19" value="" style="rounded=0;whiteSpace=wrap;html=1;" parent="1" vertex="1">
          <mxGeometry y="45" width="840" height="540" as="geometry" />
        </mxCell>
        <mxCell id="taE_gKGtC0kip1eN09oQ-11" style="edgeStyle=orthogonalEdgeStyle;rounded=0;orthogonalLoop=1;jettySize=auto;html=1;entryX=0.5;entryY=0;entryDx=0;entryDy=0;" parent="1" source="taE_gKGtC0kip1eN09oQ-1" target="taE_gKGtC0kip1eN09oQ-7" edge="1">
          <mxGeometry relative="1" as="geometry" />
        </mxCell>
        <mxCell id="taE_gKGtC0kip1eN09oQ-12" style="edgeStyle=orthogonalEdgeStyle;rounded=0;orthogonalLoop=1;jettySize=auto;html=1;" parent="1" source="taE_gKGtC0kip1eN09oQ-1" target="taE_gKGtC0kip1eN09oQ-8" edge="1">
          <mxGeometry relative="1" as="geometry" />
        </mxCell>
        <mxCell id="taE_gKGtC0kip1eN09oQ-13" style="edgeStyle=orthogonalEdgeStyle;rounded=0;orthogonalLoop=1;jettySize=auto;html=1;" parent="1" source="taE_gKGtC0kip1eN09oQ-1" target="taE_gKGtC0kip1eN09oQ-9" edge="1">
          <mxGeometry relative="1" as="geometry" />
        </mxCell>
        <mxCell id="taE_gKGtC0kip1eN09oQ-1" value="&lt;div&gt;management-clusters&lt;br&gt;&lt;br&gt;AppSet&lt;br&gt;&lt;/div&gt;" style="rounded=1;whiteSpace=wrap;html=1;" parent="1" vertex="1">
          <mxGeometry x="110" y="230" width="150" height="80" as="geometry" />
        </mxCell>
        <mxCell id="taE_gKGtC0kip1eN09oQ-17" style="edgeStyle=orthogonalEdgeStyle;rounded=0;orthogonalLoop=1;jettySize=auto;html=1;" parent="1" source="taE_gKGtC0kip1eN09oQ-2" target="taE_gKGtC0kip1eN09oQ-14" edge="1">
          <mxGeometry relative="1" as="geometry">
            <Array as="points">
              <mxPoint x="650" y="340" />
              <mxPoint x="545" y="340" />
            </Array>
          </mxGeometry>
        </mxCell>
        <mxCell id="taE_gKGtC0kip1eN09oQ-18" style="edgeStyle=orthogonalEdgeStyle;rounded=0;orthogonalLoop=1;jettySize=auto;html=1;" parent="1" source="taE_gKGtC0kip1eN09oQ-2" target="taE_gKGtC0kip1eN09oQ-15" edge="1">
          <mxGeometry relative="1" as="geometry">
            <Array as="points">
              <mxPoint x="650" y="340" />
              <mxPoint x="745" y="340" />
            </Array>
          </mxGeometry>
        </mxCell>
        <mxCell id="taE_gKGtC0kip1eN09oQ-2" value="management-apps&lt;br&gt;&lt;br&gt;&lt;div&gt;AppSet&lt;br&gt;&lt;/div&gt;" style="rounded=1;whiteSpace=wrap;html=1;" parent="1" vertex="1">
          <mxGeometry x="570" y="240" width="160" height="80" as="geometry" />
        </mxCell>
        <mxCell id="taE_gKGtC0kip1eN09oQ-4" style="edgeStyle=orthogonalEdgeStyle;rounded=0;orthogonalLoop=1;jettySize=auto;html=1;entryX=0.5;entryY=0;entryDx=0;entryDy=0;" parent="1" source="taE_gKGtC0kip1eN09oQ-3" target="taE_gKGtC0kip1eN09oQ-1" edge="1">
          <mxGeometry relative="1" as="geometry">
            <Array as="points">
              <mxPoint x="440" y="180" />
              <mxPoint x="185" y="180" />
            </Array>
          </mxGeometry>
        </mxCell>
        <mxCell id="taE_gKGtC0kip1eN09oQ-5" style="edgeStyle=orthogonalEdgeStyle;rounded=0;orthogonalLoop=1;jettySize=auto;html=1;" parent="1" source="taE_gKGtC0kip1eN09oQ-3" target="taE_gKGtC0kip1eN09oQ-2" edge="1">
          <mxGeometry relative="1" as="geometry">
            <Array as="points">
              <mxPoint x="440" y="180" />
              <mxPoint x="640" y="180" />
            </Array>
          </mxGeometry>
        </mxCell>
        <mxCell id="taE_gKGtC0kip1eN09oQ-3" value="&lt;div&gt;Cloud Deployed Apps&lt;/div&gt;" style="rounded=1;whiteSpace=wrap;html=1;" parent="1" vertex="1">
          <mxGeometry x="370" y="70" width="150" height="70" as="geometry" />
        </mxCell>
        <mxCell id="taE_gKGtC0kip1eN09oQ-6" style="edgeStyle=orthogonalEdgeStyle;rounded=0;orthogonalLoop=1;jettySize=auto;html=1;" parent="1" source="taE_gKGtC0kip1eN09oQ-3" target="taE_gKGtC0kip1eN09oQ-3" edge="1">
          <mxGeometry relative="1" as="geometry" />
        </mxCell>
        <mxCell id="taE_gKGtC0kip1eN09oQ-7" value="ArgoCD&lt;br&gt;&lt;br&gt;&lt;div&gt;App&lt;/div&gt;" style="rounded=1;whiteSpace=wrap;html=1;" parent="1" vertex="1">
          <mxGeometry x="10" y="360" width="150" height="80" as="geometry" />
        </mxCell>
        <mxCell id="taE_gKGtC0kip1eN09oQ-8" value="Cluster-api-addon-provider&lt;br&gt;&lt;br&gt;&lt;div&gt;App&lt;/div&gt;" style="rounded=1;whiteSpace=wrap;html=1;" parent="1" vertex="1">
          <mxGeometry x="220" y="360" width="150" height="80" as="geometry" />
        </mxCell>
        <mxCell id="taE_gKGtC0kip1eN09oQ-9" value="Cert-manager&lt;br&gt;&lt;br&gt;&lt;div&gt;App&lt;/div&gt;" style="rounded=1;whiteSpace=wrap;html=1;" parent="1" vertex="1">
          <mxGeometry x="110" y="480" width="150" height="80" as="geometry" />
        </mxCell>
        <mxCell id="taE_gKGtC0kip1eN09oQ-14" value="managment-cluster&lt;br&gt;&lt;br&gt;&lt;div&gt;App&lt;/div&gt;" style="rounded=1;whiteSpace=wrap;html=1;" parent="1" vertex="1">
          <mxGeometry x="470" y="370" width="150" height="80" as="geometry" />
        </mxCell>
        <mxCell id="taE_gKGtC0kip1eN09oQ-15" value="worker-cluster&lt;br&gt;&lt;br&gt;&lt;div&gt;App&lt;/div&gt;" style="rounded=1;whiteSpace=wrap;html=1;" parent="1" vertex="1">
          <mxGeometry x="670" y="370" width="150" height="80" as="geometry" />
        </mxCell>
        <mxCell id="taE_gKGtC0kip1eN09oQ-21" value="Self-manage" style="text;html=1;align=center;verticalAlign=middle;whiteSpace=wrap;rounded=0;" parent="1" vertex="1">
          <mxGeometry x="550" y="90" width="60" height="30" as="geometry" />
        </mxCell>
        <mxCell id="taE_gKGtC0kip1eN09oQ-22" value="Manages" style="text;html=1;align=center;verticalAlign=middle;whiteSpace=wrap;rounded=0;" parent="1" vertex="1">
          <mxGeometry x="390" y="180" width="100" height="30" as="geometry" />
        </mxCell>
        <mxCell id="taE_gKGtC0kip1eN09oQ-27" value="Manages" style="text;html=1;align=center;verticalAlign=middle;whiteSpace=wrap;rounded=0;" parent="1" vertex="1">
          <mxGeometry x="170" y="330" width="100" height="30" as="geometry" />
        </mxCell>
        <mxCell id="taE_gKGtC0kip1eN09oQ-31" value="Manages" style="text;html=1;align=center;verticalAlign=middle;whiteSpace=wrap;rounded=0;" parent="1" vertex="1">
          <mxGeometry x="600" y="340" width="100" height="30" as="geometry" />
        </mxCell>
        <mxCell id="taE_gKGtC0kip1eN09oQ-32" value="Dev" style="text;html=1;align=center;verticalAlign=middle;whiteSpace=wrap;rounded=0;" parent="1" vertex="1">
          <mxGeometry x="720" y="50" width="100" height="30" as="geometry" />
        </mxCell>
        <mxCell id="taE_gKGtC0kip1eN09oQ-40" style="edgeStyle=orthogonalEdgeStyle;rounded=0;orthogonalLoop=1;jettySize=auto;html=1;entryX=0.493;entryY=0.044;entryDx=0;entryDy=0;entryPerimeter=0;exitX=0.5;exitY=1;exitDx=0;exitDy=0;" parent="1" source="taE_gKGtC0kip1eN09oQ-34" target="taE_gKGtC0kip1eN09oQ-44" edge="1">
          <mxGeometry relative="1" as="geometry">
            <Array as="points">
              <mxPoint x="367" y="850" />
            </Array>
          </mxGeometry>
        </mxCell>
        <mxCell id="taE_gKGtC0kip1eN09oQ-57" value="Test and promote" style="edgeLabel;html=1;align=center;verticalAlign=middle;resizable=0;points=[];" parent="taE_gKGtC0kip1eN09oQ-40" vertex="1" connectable="0">
          <mxGeometry x="-0.2629" y="4" relative="1" as="geometry">
            <mxPoint as="offset" />
          </mxGeometry>
        </mxCell>
        <mxCell id="taE_gKGtC0kip1eN09oQ-34" value="clusters/dev/test-cluster/argocd/argocd-setup-values.yaml" style="rounded=0;whiteSpace=wrap;html=1;" parent="1" vertex="1">
          <mxGeometry x="208" y="790" width="320" height="60" as="geometry" />
        </mxCell>
        <mxCell id="taE_gKGtC0kip1eN09oQ-41" style="edgeStyle=orthogonalEdgeStyle;rounded=0;orthogonalLoop=1;jettySize=auto;html=1;" parent="1" source="taE_gKGtC0kip1eN09oQ-35" target="taE_gKGtC0kip1eN09oQ-36" edge="1">
          <mxGeometry relative="1" as="geometry" />
        </mxCell>
        <mxCell id="taE_gKGtC0kip1eN09oQ-52" value="Test and promote" style="edgeLabel;html=1;align=center;verticalAlign=middle;resizable=0;points=[];" parent="taE_gKGtC0kip1eN09oQ-41" vertex="1" connectable="0">
          <mxGeometry x="0.1" y="3" relative="1" as="geometry">
            <mxPoint as="offset" />
          </mxGeometry>
        </mxCell>
        <mxCell id="taE_gKGtC0kip1eN09oQ-35" value="charts/dev/argocd/values.yaml" style="rounded=0;whiteSpace=wrap;html=1;" parent="1" vertex="1">
          <mxGeometry x="3" y="1090" width="280" height="60" as="geometry" />
        </mxCell>
        <mxCell id="taE_gKGtC0kip1eN09oQ-42" style="edgeStyle=orthogonalEdgeStyle;rounded=0;orthogonalLoop=1;jettySize=auto;html=1;" parent="1" source="taE_gKGtC0kip1eN09oQ-36" target="taE_gKGtC0kip1eN09oQ-37" edge="1">
          <mxGeometry relative="1" as="geometry" />
        </mxCell>
        <mxCell id="taE_gKGtC0kip1eN09oQ-53" value="Test long term, then promote" style="edgeLabel;html=1;align=center;verticalAlign=middle;resizable=0;points=[];" parent="taE_gKGtC0kip1eN09oQ-42" vertex="1" connectable="0">
          <mxGeometry x="-0.0857" y="-2" relative="1" as="geometry">
            <mxPoint as="offset" />
          </mxGeometry>
        </mxCell>
        <mxCell id="taE_gKGtC0kip1eN09oQ-36" value="charts/staging/argocd/values.yaml" style="rounded=0;whiteSpace=wrap;html=1;" parent="1" vertex="1">
          <mxGeometry x="3" y="1210" width="280" height="60" as="geometry" />
        </mxCell>
        <mxCell id="taE_gKGtC0kip1eN09oQ-37" value="charts/prod/argocd/values.yaml" style="rounded=0;whiteSpace=wrap;html=1;" parent="1" vertex="1">
          <mxGeometry x="3" y="1340" width="280" height="60" as="geometry" />
        </mxCell>
        <mxCell id="taE_gKGtC0kip1eN09oQ-48" style="edgeStyle=orthogonalEdgeStyle;rounded=0;orthogonalLoop=1;jettySize=auto;html=1;entryX=0.5;entryY=0;entryDx=0;entryDy=0;" parent="1" source="taE_gKGtC0kip1eN09oQ-38" target="taE_gKGtC0kip1eN09oQ-39" edge="1">
          <mxGeometry relative="1" as="geometry" />
        </mxCell>
        <mxCell id="taE_gKGtC0kip1eN09oQ-38" value="clusters/staging/test-cluster/argocd/argocd-setup-values.yaml" style="rounded=0;whiteSpace=wrap;html=1;" parent="1" vertex="1">
          <mxGeometry x="480" y="1100" width="340" height="60" as="geometry" />
        </mxCell>
        <mxCell id="taE_gKGtC0kip1eN09oQ-39" value="clusters/prod/test-cluster/argocd/argocd-setup-values.yaml" style="rounded=0;whiteSpace=wrap;html=1;" parent="1" vertex="1">
          <mxGeometry x="480" y="1210" width="340" height="60" as="geometry" />
        </mxCell>
        <mxCell id="taE_gKGtC0kip1eN09oQ-46" style="edgeStyle=orthogonalEdgeStyle;rounded=0;orthogonalLoop=1;jettySize=auto;html=1;entryX=0.5;entryY=0;entryDx=0;entryDy=0;" parent="1" source="taE_gKGtC0kip1eN09oQ-44" target="taE_gKGtC0kip1eN09oQ-35" edge="1">
          <mxGeometry relative="1" as="geometry">
            <mxPoint x="143" y="1080" as="targetPoint" />
            <Array as="points">
              <mxPoint x="370" y="1070" />
              <mxPoint x="143" y="1070" />
            </Array>
          </mxGeometry>
        </mxCell>
        <mxCell id="taE_gKGtC0kip1eN09oQ-49" value="&lt;div&gt;Yes&lt;/div&gt;" style="edgeLabel;html=1;align=center;verticalAlign=middle;resizable=0;points=[];" parent="taE_gKGtC0kip1eN09oQ-46" vertex="1" connectable="0">
          <mxGeometry x="0.176" y="-2" relative="1" as="geometry">
            <mxPoint y="-13" as="offset" />
          </mxGeometry>
        </mxCell>
        <mxCell id="taE_gKGtC0kip1eN09oQ-47" style="edgeStyle=orthogonalEdgeStyle;rounded=0;orthogonalLoop=1;jettySize=auto;html=1;" parent="1" source="taE_gKGtC0kip1eN09oQ-44" target="taE_gKGtC0kip1eN09oQ-38" edge="1">
          <mxGeometry relative="1" as="geometry">
            <Array as="points">
              <mxPoint x="370" y="1070" />
              <mxPoint x="663" y="1070" />
            </Array>
          </mxGeometry>
        </mxCell>
        <mxCell id="taE_gKGtC0kip1eN09oQ-51" value="No - just the specific cluster" style="edgeLabel;html=1;align=center;verticalAlign=middle;resizable=0;points=[];" parent="taE_gKGtC0kip1eN09oQ-47" vertex="1" connectable="0">
          <mxGeometry x="0.1028" y="-3" relative="1" as="geometry">
            <mxPoint x="-11" y="-13" as="offset" />
          </mxGeometry>
        </mxCell>
        <mxCell id="taE_gKGtC0kip1eN09oQ-44" value="Should the change apply to all clusters?" style="html=1;whiteSpace=wrap;aspect=fixed;shape=isoRectangle;" parent="1" vertex="1">
          <mxGeometry x="253" y="900" width="233.33" height="140" as="geometry" />
        </mxCell>
        <mxCell id="taE_gKGtC0kip1eN09oQ-50" value="&lt;div&gt;&lt;br&gt;&lt;/div&gt;" style="edgeLabel;html=1;align=center;verticalAlign=middle;resizable=0;points=[];" parent="1" vertex="1" connectable="0">
          <mxGeometry x="312.99999999999983" y="1060" as="geometry">
            <mxPoint x="205" y="-10" as="offset" />
          </mxGeometry>
        </mxCell>
        <mxCell id="taE_gKGtC0kip1eN09oQ-54" value="Test long term, then promote" style="edgeLabel;html=1;align=center;verticalAlign=middle;resizable=0;points=[];" parent="1" vertex="1" connectable="0">
          <mxGeometry x="643" y="1180" as="geometry" />
        </mxCell>
        <mxCell id="c86gPvE5_RZw3oMdyiMG-3" style="edgeStyle=orthogonalEdgeStyle;rounded=0;orthogonalLoop=1;jettySize=auto;html=1;entryX=0.5;entryY=0;entryDx=0;entryDy=0;" edge="1" parent="1" source="c86gPvE5_RZw3oMdyiMG-2" target="taE_gKGtC0kip1eN09oQ-34">
          <mxGeometry relative="1" as="geometry" />
        </mxCell>
        <mxCell id="c86gPvE5_RZw3oMdyiMG-4" value="Make the change by editing" style="edgeLabel;html=1;align=center;verticalAlign=middle;resizable=0;points=[];" vertex="1" connectable="0" parent="c86gPvE5_RZw3oMdyiMG-3">
          <mxGeometry x="0.1714" y="-2" relative="1" as="geometry">
            <mxPoint x="2" y="-11" as="offset" />
          </mxGeometry>
        </mxCell>
        <mxCell id="c86gPvE5_RZw3oMdyiMG-2" value="There&#39;s a change I want to make" style="ellipse;whiteSpace=wrap;html=1;" vertex="1" parent="1">
          <mxGeometry x="275" y="620" width="186" height="100" as="geometry" />
        </mxCell>
      </root>
    </mxGraphModel>
  </diagram>
</mxfile>
